<svg width="134" height="23" viewBox="0 0 134 23" fill="none" xmlns="http://www.w3.org/2000/svg">
<path d="M113.68 22.0914V1.33212H118.686V6.21666H118.808V22.0914H113.68ZM128.252 22.0914V8.98457C128.252 7.70916 127.926 6.74582 127.275 6.09455C126.624 5.44328 125.674 5.11764 124.426 5.11764C123.34 5.11764 122.363 5.36187 121.495 5.85032C120.654 6.33878 119.989 7.01719 119.5 7.88555C119.039 8.75391 118.808 9.75796 118.808 10.8977L118.279 5.93173C118.985 4.4121 120.016 3.20453 121.373 2.30903C122.73 1.3864 124.358 0.925079 126.257 0.925079C128.51 0.925079 130.26 1.56278 131.508 2.83819C132.784 4.1136 133.421 5.80962 133.421 7.92625V22.0914H128.252Z" fill="#F3F3F3"/>
<path d="M98.8355 22.4985C96.6375 22.4985 94.6972 22.0371 93.0148 21.1145C91.3595 20.1919 90.0705 18.9165 89.1479 17.2883C88.2252 15.633 87.7639 13.747 87.7639 11.6304C87.7639 9.51373 88.2252 7.65489 89.1479 6.05384C90.0705 4.4528 91.3595 3.20453 93.0148 2.30903C94.6972 1.3864 96.6375 0.925079 98.8355 0.925079C101.061 0.925079 103.001 1.3864 104.656 2.30903C106.312 3.20453 107.601 4.4528 108.523 6.05384C109.446 7.65489 109.907 9.51373 109.907 11.6304C109.907 13.747 109.432 15.633 108.483 17.2883C107.56 18.9165 106.271 20.1919 104.616 21.1145C102.96 22.0371 101.034 22.4985 98.8355 22.4985ZM98.8355 18.3873C99.921 18.3873 100.898 18.1159 101.766 17.5732C102.635 17.0034 103.313 16.2164 103.801 15.2124C104.29 14.1812 104.534 12.9736 104.534 11.5897C104.534 9.55443 103.991 7.95339 102.906 6.78652C101.848 5.61966 100.491 5.03623 98.8355 5.03623C97.1802 5.03623 95.8098 5.61966 94.7244 6.78652C93.6389 7.95339 93.0962 9.55443 93.0962 11.5897C93.0962 12.9736 93.3404 14.1812 93.8289 15.2124C94.3445 16.2164 95.0229 17.0034 95.8641 17.5732C96.7325 18.1159 97.7229 18.3873 98.8355 18.3873Z" fill="#F3F3F3"/>
<path d="M73.7304 22.0914V1.33212H78.7371V6.33878H78.8592V22.0914H73.7304ZM78.8592 11.264L78.33 6.33878C78.8185 4.57492 79.6461 3.23167 80.813 2.30903C81.9798 1.3864 83.3774 0.925079 85.0056 0.925079C85.5754 0.925079 85.9825 0.979352 86.2267 1.0879V5.93173C86.091 5.87746 85.9011 5.85032 85.6568 5.85032C85.4126 5.82319 85.1141 5.80962 84.7613 5.80962C82.7804 5.80962 81.3014 6.2438 80.3245 7.11216C79.3476 7.98052 78.8592 9.36448 78.8592 11.264Z" fill="#F3F3F3"/>
<path d="M55.8809 22.4985C54.4427 22.4985 53.1944 22.2 52.1361 21.603C51.1049 20.9788 50.3044 20.1376 49.7345 19.0793C49.1918 18.021 48.9204 16.827 48.9204 15.4973V1.33212H54.0492V14.439C54.0492 15.7144 54.3612 16.6777 54.9854 17.329C55.6367 17.9803 56.5457 18.3059 57.7126 18.3059C58.7709 18.3059 59.6935 18.0617 60.4805 17.5732C61.2946 17.0848 61.9323 16.4064 62.3936 15.538C62.882 14.6425 63.1263 13.6384 63.1263 12.5259L63.6554 17.4918C62.977 19.0114 61.9594 20.2326 60.6026 21.1552C59.2729 22.0507 57.699 22.4985 55.8809 22.4985ZM63.2891 22.0914V17.2069H63.1263V1.33212H68.2957V22.0914H63.2891Z" fill="#F3F3F3"/>
<path d="M35.2319 22.4985C33.0339 22.4985 31.1072 22.0371 29.4519 21.1145C27.8237 20.1919 26.5483 18.9165 25.6257 17.2883C24.7302 15.6601 24.2824 13.7877 24.2824 11.6711C24.2824 9.55443 24.7302 7.69559 25.6257 6.09455C26.5483 4.46637 27.8237 3.20453 29.4519 2.30903C31.0801 1.3864 32.9796 0.925079 35.1505 0.925079C37.2129 0.925079 39.0039 1.35926 40.5235 2.22762C42.0431 3.06885 43.2236 4.26285 44.0648 5.80962C44.906 7.35639 45.3266 9.16095 45.3266 11.2233C45.3266 11.6032 45.3131 11.956 45.2859 12.2816C45.2588 12.6073 45.2181 12.9329 45.1638 13.2585H27.4574V9.67654H41.2155L40.1572 10.6535C40.1572 8.69964 39.7094 7.23427 38.8139 6.25737C37.9184 5.28046 36.6701 4.79201 35.0691 4.79201C33.3324 4.79201 31.9484 5.389 30.9172 6.583C29.9132 7.777 29.4112 9.50016 29.4112 11.7525C29.4112 13.9777 29.9132 15.6872 30.9172 16.8812C31.9484 18.0481 33.4002 18.6315 35.2726 18.6315C36.3581 18.6315 37.3078 18.428 38.1219 18.021C38.936 17.6139 39.533 16.9898 39.9129 16.1486H44.7568C44.0784 18.1024 42.9251 19.6491 41.2969 20.7889C39.6958 21.9286 37.6742 22.4985 35.2319 22.4985Z" fill="#F3F3F3"/>
<path d="M0.987061 22.0914V1.33212H5.99371V6.21666H6.11583V22.0914H0.987061ZM15.5593 22.0914V8.98457C15.5593 7.70916 15.2336 6.74582 14.5824 6.09455C13.9311 5.44328 12.9813 5.11764 11.733 5.11764C10.6476 5.11764 9.67068 5.36187 8.80232 5.85032C7.9611 6.33878 7.29626 7.01719 6.8078 7.88555C6.34648 8.75391 6.11583 9.75796 6.11583 10.8977L5.58667 5.93173C6.29221 4.4121 7.32339 3.20453 8.68021 2.30903C10.037 1.3864 11.6652 0.925079 13.5647 0.925079C15.8171 0.925079 17.5674 1.56278 18.8156 2.83819C20.091 4.1136 20.7287 5.80962 20.7287 7.92625V22.0914H15.5593Z" fill="#F3F3F3"/>
</svg>
